<svg width="1117" height="999" viewBox="0 0 1117 999" fill="none" xmlns="http://www.w3.org/2000/svg">
<mask id="path-1-outside-1_1_57" maskUnits="userSpaceOnUse" x="0" y="0" width="1117" height="999" fill="black">
<rect fill="white" width="1117" height="999"/>
<path fill-rule="evenodd" clip-rule="evenodd" d="M967.38 656.918C994.588 598.576 1009.78 533.504 1009.78 464.883C1009.78 213.658 806.124 10 554.899 10C303.674 10 100.016 213.658 100.016 464.883C100.016 533.504 115.211 598.576 142.419 656.918H75C39.1015 656.918 10 686.019 10 721.918V810.358C10 846.256 39.1015 875.358 75 875.358H75.6696C89.9684 882.42 100.016 899.106 100.016 918.566V925.178C100.016 959.972 128.223 988.178 163.016 988.178H946.782C981.576 988.178 1009.78 959.972 1009.78 925.178V919.766C1009.78 898.169 1021.63 880.078 1037.55 875.358H1042C1077.9 875.358 1107 846.256 1107 810.358V721.918C1107 686.019 1077.9 656.918 1042 656.918H967.38Z"/>
</mask>
<path fill-rule="evenodd" clip-rule="evenodd" d="M967.38 656.918C994.588 598.576 1009.78 533.504 1009.78 464.883C1009.78 213.658 806.124 10 554.899 10C303.674 10 100.016 213.658 100.016 464.883C100.016 533.504 115.211 598.576 142.419 656.918H75C39.1015 656.918 10 686.019 10 721.918V810.358C10 846.256 39.1015 875.358 75 875.358H75.6696C89.9684 882.42 100.016 899.106 100.016 918.566V925.178C100.016 959.972 128.223 988.178 163.016 988.178H946.782C981.576 988.178 1009.78 959.972 1009.78 925.178V919.766C1009.78 898.169 1021.63 880.078 1037.55 875.358H1042C1077.9 875.358 1107 846.256 1107 810.358V721.918C1107 686.019 1077.9 656.918 1042 656.918H967.38Z" fill="#002877"/>
<path d="M967.38 656.918L958.317 652.691C956.872 655.788 957.109 659.409 958.945 662.291C960.782 665.173 963.962 666.918 967.38 666.918V656.918ZM142.419 656.918V666.918C145.836 666.918 149.017 665.173 150.853 662.291C152.689 659.409 152.926 655.788 151.482 652.691L142.419 656.918ZM75.6696 875.358L80.0977 866.392C78.7206 865.712 77.2054 865.358 75.6696 865.358V875.358ZM1037.55 875.358V865.358C1036.58 865.358 1035.63 865.497 1034.7 865.771L1037.55 875.358ZM999.782 464.883C999.782 532.014 984.92 595.645 958.317 652.691L976.442 661.144C1004.26 601.506 1019.78 534.994 1019.78 464.883H999.782ZM554.899 20C800.601 20 999.782 219.181 999.782 464.883H1019.78C1019.78 208.135 811.647 0 554.899 0V20ZM110.016 464.883C110.016 219.181 309.197 20 554.899 20V0C298.152 0 90.0164 208.135 90.0164 464.883H110.016ZM151.482 652.691C124.878 595.645 110.016 532.014 110.016 464.883H90.0164C90.0164 534.994 105.544 601.506 133.356 661.145L151.482 652.691ZM142.419 646.918H75V666.918H142.419V646.918ZM75 646.918C33.5787 646.918 0 680.497 0 721.918H20C20 691.542 44.6243 666.918 75 666.918V646.918ZM0 721.918V810.358H20V721.918H0ZM0 810.358C0 851.779 33.5786 885.358 75 885.358V865.358C44.6243 865.358 20 840.733 20 810.358H0ZM75 885.358H75.6696V865.358H75V885.358ZM71.2415 884.324C81.6529 889.466 90.0164 902.351 90.0164 918.566H110.016C110.016 895.861 98.284 875.373 80.0977 866.392L71.2415 884.324ZM90.0164 918.566V925.178H110.016V918.566H90.0164ZM90.0164 925.178C90.0164 965.495 122.7 998.178 163.016 998.178V978.178C133.745 978.178 110.016 954.449 110.016 925.178H90.0164ZM163.016 998.178H946.782V978.178H163.016V998.178ZM946.782 998.178C987.099 998.178 1019.78 965.495 1019.78 925.178H999.782C999.782 954.449 976.053 978.178 946.782 978.178V998.178ZM1019.78 925.178V919.766H999.782V925.178H1019.78ZM1019.78 919.766C1019.78 901.264 1029.88 888.064 1040.39 884.945L1034.7 865.771C1013.39 872.092 999.782 895.074 999.782 919.766H1019.78ZM1037.55 885.358H1042V865.358H1037.55V885.358ZM1042 885.358C1083.42 885.358 1117 851.779 1117 810.358H1097C1097 840.734 1072.38 865.358 1042 865.358V885.358ZM1117 810.358V721.918H1097V810.358H1117ZM1117 721.918C1117 680.497 1083.42 646.918 1042 646.918V666.918C1072.38 666.918 1097 691.542 1097 721.918H1117ZM1042 646.918H967.38V666.918H1042V646.918Z" fill="white" mask="url(#path-1-outside-1_1_57)"/>
<path d="M598.095 417.929C596.192 412.072 590.701 407.753 584.185 407.753H576.863V385.789C576.863 383.847 576.092 381.985 574.719 380.612C573.346 379.239 571.484 378.467 569.542 378.467H525.614V363.825H540.257C542.198 363.825 544.061 363.053 545.434 361.68C546.807 360.307 547.578 358.445 547.578 356.503V341.861H562.221C566.104 341.861 569.829 340.318 572.575 337.572C575.321 334.826 576.863 331.101 576.863 327.218V324.216C585.623 327.748 593.397 333.349 599.519 340.541C605.641 347.734 609.929 356.302 612.016 365.514C614.103 374.725 613.926 384.305 611.502 393.433C609.078 402.562 604.478 410.967 598.095 417.929ZM547.578 436.525C518.659 432.938 496.329 408.338 496.329 378.467C496.329 373.928 496.914 369.535 497.866 365.362L532.935 400.431V407.753C532.935 411.636 534.478 415.36 537.224 418.106C539.97 420.852 543.695 422.395 547.578 422.395M554.899 305.254C545.285 305.254 535.764 307.148 526.882 310.827C517.999 314.506 509.928 319.899 503.13 326.698C489.4 340.428 481.686 359.05 481.686 378.467C481.686 397.885 489.4 416.507 503.13 430.237C509.928 437.035 517.999 442.428 526.882 446.108C535.764 449.787 545.285 451.681 554.899 451.681C574.317 451.681 592.939 443.967 606.669 430.237C620.399 416.507 628.113 397.885 628.113 378.467C628.113 368.853 626.219 359.332 622.54 350.45C618.86 341.567 613.467 333.496 606.669 326.698C599.871 319.899 591.8 314.506 582.917 310.827C574.034 307.148 564.514 305.254 554.899 305.254Z" fill="url(#paint0_linear_1_57)"/>
<path d="M215.897 642.387C211.882 643.39 208.088 642.82 204.518 640.676C200.947 638.532 198.657 635.451 197.648 631.432L194.002 616.829C192.999 612.814 193.572 609.02 195.72 605.448C197.869 601.876 200.948 599.587 204.957 598.58L195.841 562.075C191.825 563.078 188.032 562.507 184.461 560.364C180.89 558.22 178.601 555.139 177.592 551.119L173.945 536.517C172.942 532.501 173.515 528.708 175.663 525.136C177.812 521.564 180.891 519.275 184.9 518.268L206.804 512.798L204.981 505.497C202.912 506.014 201.004 505.745 199.257 504.692C197.51 503.64 196.376 502.082 195.856 500.019C195.339 497.951 195.608 496.043 196.661 494.296C197.713 492.549 199.271 491.415 201.334 490.895L230.538 483.601C232.607 483.085 234.517 483.352 236.269 484.404C238.021 485.456 239.152 487.014 239.663 489.079C240.179 491.148 239.912 493.058 238.86 494.81C237.808 496.562 236.25 497.693 234.185 498.204L236.008 505.505L257.912 500.035C261.927 499.032 265.723 499.604 269.3 501.751C272.877 503.899 275.164 506.978 276.161 510.99L279.807 525.593C280.81 529.608 280.24 533.404 278.098 536.979C275.955 540.555 272.873 542.842 268.852 543.841L277.968 580.347C281.984 579.344 285.78 579.916 289.357 582.064C292.934 584.211 295.221 587.291 296.217 591.303L299.864 605.905C300.867 609.92 300.297 613.716 298.155 617.292C296.012 620.867 292.93 623.155 288.908 624.154L215.897 642.387Z" fill="url(#paint1_linear_1_57)"/>
<path d="M861.006 596.851L820.949 586.027C817.853 585.191 815.897 583.209 815.081 580.081C814.265 576.954 815.109 574.344 817.612 572.252L849.947 544.029L849.367 543.872C846.271 543.036 844.354 541.031 843.617 537.858C842.879 534.686 843.765 532.051 846.275 529.956L900.722 484.452C901.775 483.629 902.96 483.086 904.277 482.821C905.595 482.557 906.835 482.579 907.997 482.888C909.158 483.202 910.24 483.807 911.244 484.704C912.247 485.601 912.997 486.667 913.494 487.903L937.613 554.636C938.722 557.705 938.161 560.427 935.929 562.803C933.698 565.179 931.033 565.945 927.933 565.102L927.352 564.945L941.072 605.613C942.181 608.681 941.596 611.36 939.316 613.651C937.035 615.942 934.347 616.669 931.251 615.833L891.194 605.009L884.919 628.23C884.327 630.423 883.089 632.063 881.207 633.149C879.324 634.235 877.284 634.478 875.087 633.879L860.38 629.905C858.187 629.312 856.551 628.073 855.472 626.186C854.392 624.3 854.145 622.262 854.732 620.073L861.006 596.851Z" fill="url(#paint2_linear_1_57)"/>
<path d="M907.149 390.696L901.996 369.715L891.651 372.256C884.496 374.014 877.77 372.954 871.472 369.076C865.174 365.199 861.133 359.635 859.348 352.383C858.06 347.138 858.296 341.96 860.057 336.848C861.817 331.737 864.864 327.581 869.197 324.381C868.362 317.634 869.839 311.456 873.627 305.846C877.416 300.237 882.583 296.626 889.13 295.014C895.682 293.405 901.936 294.21 907.893 297.429C913.85 300.649 918.02 305.44 920.402 311.803C925.723 312.628 930.349 314.899 934.278 318.617C938.208 322.335 940.816 326.814 942.104 332.056C943.886 339.311 942.883 346.117 939.095 352.471C935.307 358.826 929.837 362.88 922.684 364.633L912.34 367.174L917.493 388.155L943.355 381.802C944.82 381.442 946.173 381.644 947.413 382.407C948.654 383.17 949.454 384.293 949.815 385.777C950.18 387.263 949.99 388.631 949.244 389.882C948.498 391.133 947.394 391.937 945.931 392.292L883.865 407.538C882.399 407.898 881.048 407.696 879.811 406.932C878.574 406.168 877.772 405.045 877.404 403.564C877.039 402.077 877.23 400.711 877.976 399.463C878.723 398.216 879.827 397.411 881.288 397.048L907.149 390.696Z" fill="url(#paint3_linear_1_57)"/>
<path d="M845.952 227.84C847.053 226.74 847.603 225.339 847.603 223.639C847.603 221.939 847.053 220.538 845.952 219.438L837.701 211.187C840.901 207.086 843.376 202.535 845.124 197.534C846.873 192.533 847.749 187.232 847.753 181.631C847.753 168.229 843.102 156.877 833.8 147.575C824.499 138.273 813.146 133.623 799.744 133.623H751.735V181.631C751.735 195.034 756.386 206.386 765.688 215.687C774.989 224.989 786.342 229.64 799.744 229.64C805.345 229.64 810.62 228.766 815.569 227.018C820.518 225.269 825.045 222.793 829.149 219.588L837.551 227.84C838.651 228.94 840.051 229.49 841.752 229.49C843.452 229.49 844.852 228.94 845.952 227.84ZM821.648 203.535C820.548 204.836 819.148 205.46 817.447 205.408C815.747 205.356 814.297 204.731 813.096 203.535L789.542 179.981C788.342 178.781 787.742 177.354 787.742 175.702C787.742 174.05 788.342 172.626 789.542 171.429C790.642 170.329 792.043 169.779 793.743 169.779C795.443 169.779 796.843 170.329 797.944 171.429L821.648 195.134C822.748 196.234 823.298 197.61 823.298 199.262C823.298 200.915 822.748 202.339 821.648 203.535Z" fill="url(#paint4_linear_1_57)"/>
<path d="M500.52 266.047L542.366 196.455L506.058 136.1C501.135 127.889 494.062 123.783 484.84 123.783C475.617 123.783 468.536 127.889 463.597 136.1L416.212 215.547C412.93 221.295 412.011 227.56 413.455 234.343C414.899 241.125 418.485 246.151 424.212 249.419L466.674 274.669C472.417 277.954 478.678 278.775 485.455 277.133C492.233 275.491 497.254 271.795 500.52 266.047ZM725.75 454.501L683.904 384.909C680.212 379.161 679.293 372.895 681.147 366.113C683.002 359.33 686.792 354.305 692.52 351.036L735.596 326.402C741.34 323.117 747.494 322.296 754.058 323.938C760.622 325.581 765.545 329.276 768.827 335.024L795.904 379.982C800.417 386.962 802.878 394.763 803.289 403.385C803.699 412.007 801.853 420.013 797.75 427.403C793.648 435.615 787.601 442.184 779.609 447.111C771.617 452.038 762.895 454.501 753.443 454.501H725.75ZM634.058 606.004L573.751 545.649C568.827 540.722 566.366 534.974 566.366 528.405C566.366 521.836 568.827 516.088 573.751 511.161L634.058 450.806C638.161 446.701 642.674 445.674 647.597 447.727C652.52 449.78 654.981 453.68 654.981 459.428V479.136H771.904L736.212 550.576C731.699 558.788 725.545 565.357 717.75 570.284C709.956 575.211 701.34 577.674 691.904 577.674H654.981V597.382C654.981 603.13 652.52 607.03 647.597 609.083C642.674 611.136 638.161 610.109 634.058 606.004ZM416.828 577.674C408.623 577.674 401.131 575.523 394.354 571.22C387.576 566.917 382.555 561.267 379.289 554.271C376.007 547.702 374.473 540.829 374.686 533.652C374.899 526.475 376.844 519.799 380.52 513.624L401.443 479.136H482.674C489.648 479.136 495.498 481.501 500.224 486.231C504.951 490.961 507.305 496.807 507.289 503.77V553.039C507.289 560.019 504.926 565.874 500.2 570.604C495.474 575.334 489.632 577.69 482.674 577.674H416.828ZM355.905 507.466L315.905 427.403C312.212 420.013 310.465 412.114 310.662 403.705C310.859 395.296 313.222 387.389 317.751 379.982L327.597 363.354L310.982 353.5C306.469 350.626 304.623 346.413 305.443 340.862C306.264 335.311 309.341 331.928 314.674 330.713L396.52 310.389C403.084 308.747 409.345 309.675 415.301 313.173C421.258 316.671 425.049 321.697 426.674 328.25L446.981 410.775C448.212 416.113 446.571 420.424 442.058 423.708C437.546 426.993 433.033 427.198 428.52 424.324L411.905 413.854L355.905 507.466ZM664.212 290.682L582.366 270.358C577.033 269.127 574.054 265.744 573.431 260.209C572.807 254.674 574.76 250.462 579.289 247.571L595.904 237.718L518.981 109.618H605.75C614.366 109.618 622.473 111.778 630.07 116.097C637.668 120.416 643.716 126.263 648.212 133.637L680.212 187.217L696.212 177.363C700.725 174.489 705.238 174.694 709.75 177.979C714.263 181.264 715.904 185.575 714.673 190.912L694.366 272.822C692.725 279.391 688.934 284.425 682.993 287.923C677.053 291.421 670.792 292.341 664.212 290.682Z" fill="url(#paint5_linear_1_57)"/>
<path d="M100.983 846.971C94.5593 846.971 89.5953 845.219 86.0913 841.715C82.5873 838.065 80.8353 833.028 80.8353 826.604V710.972C80.8353 704.402 82.5873 699.365 86.0913 695.861C89.7413 692.357 94.7783 690.605 101.202 690.605H155.076C172.596 690.605 186.101 694.912 195.591 703.526C205.227 711.994 210.045 723.82 210.045 739.004C210.045 748.786 207.855 757.327 203.475 764.627C199.241 771.781 193.036 777.329 184.86 781.271C176.83 785.067 166.902 786.965 155.076 786.965L156.828 783.023H167.34C173.618 783.023 179.166 784.556 183.984 787.622C188.802 790.542 192.817 795.068 196.029 801.2L206.979 820.91C209.315 825.144 210.41 829.305 210.264 833.393C210.118 837.335 208.512 840.62 205.446 843.248C202.526 845.73 198.219 846.971 192.525 846.971C186.831 846.971 182.159 845.803 178.509 843.467C175.005 841.131 171.866 837.481 169.092 832.517L149.163 795.944C147.411 792.732 145.148 790.542 142.374 789.374C139.746 788.06 136.68 787.403 133.176 787.403H121.131V826.604C121.131 833.028 119.452 838.065 116.094 841.715C112.736 845.219 107.699 846.971 100.983 846.971ZM121.131 758.933H147.849C155.587 758.933 161.5 757.4 165.588 754.334C169.676 751.268 171.72 746.523 171.72 740.099C171.72 733.967 169.676 729.368 165.588 726.302C161.5 723.09 155.587 721.484 147.849 721.484H121.131V758.933ZM256.485 845C249.623 845 244.367 843.248 240.717 839.744C237.213 836.094 235.461 830.911 235.461 824.195V711.41C235.461 704.694 237.213 699.584 240.717 696.08C244.367 692.43 249.623 690.605 256.485 690.605H330.726C335.982 690.605 339.924 691.919 342.552 694.547C345.18 697.175 346.494 700.971 346.494 705.935C346.494 711.045 345.18 714.987 342.552 717.761C339.924 720.389 335.982 721.703 330.726 721.703H274.005V751.049H325.908C331.018 751.049 334.887 752.363 337.515 754.991C340.289 757.619 341.676 761.488 341.676 766.598C341.676 771.708 340.289 775.577 337.515 778.205C334.887 780.833 331.018 782.147 325.908 782.147H274.005V813.902H330.726C335.982 813.902 339.924 815.289 342.552 818.063C345.18 820.691 346.494 824.487 346.494 829.451C346.494 834.561 345.18 838.43 342.552 841.058C339.924 843.686 335.982 845 330.726 845H256.485ZM448.376 847.409C431.294 847.409 416.621 844.124 404.357 837.554C392.093 830.984 382.676 821.713 376.106 809.741C369.682 797.769 366.47 783.753 366.47 767.693C366.47 755.721 368.295 744.844 371.945 735.062C375.741 725.28 381.143 716.885 388.151 709.877C395.305 702.869 403.919 697.54 413.993 693.89C424.213 690.094 435.674 688.196 448.376 688.196C455.092 688.196 462.027 688.999 469.181 690.605C476.481 692.065 482.905 694.328 488.453 697.394C492.541 699.584 495.388 702.358 496.994 705.716C498.6 709.074 499.111 712.505 498.527 716.009C498.089 719.513 496.848 722.652 494.804 725.426C492.76 728.2 490.132 730.098 486.92 731.12C483.708 731.996 480.204 731.485 476.408 729.587C472.028 727.543 467.648 726.01 463.268 724.988C459.034 723.82 454.581 723.236 449.909 723.236C440.857 723.236 433.265 724.988 427.133 728.492C421.147 731.85 416.621 736.814 413.555 743.384C410.489 749.954 408.956 758.057 408.956 767.693C408.956 777.329 410.489 785.505 413.555 792.221C416.621 798.791 421.147 803.828 427.133 807.332C433.265 810.69 440.857 812.369 449.909 812.369C453.705 812.369 457.793 811.931 462.173 811.055C466.553 810.033 470.86 808.5 475.094 806.456C479.474 804.558 483.343 804.047 486.701 804.923C490.205 805.799 492.979 807.551 495.023 810.179C497.213 812.807 498.6 815.873 499.184 819.377C499.768 822.735 499.257 826.093 497.651 829.451C496.191 832.809 493.563 835.51 489.767 837.554C484.657 840.62 478.306 843.029 470.714 844.781C463.268 846.533 455.822 847.409 448.376 847.409ZM575.123 846.971C568.699 846.971 563.735 845.219 560.231 841.715C556.727 838.065 554.975 832.882 554.975 826.166V766.16L563.297 788.279L512.927 715.79C510.445 712.286 509.35 708.417 509.642 704.183C510.08 699.803 511.832 696.153 514.898 693.233C518.11 690.167 522.636 688.634 528.476 688.634C532.564 688.634 536.287 689.656 539.645 691.7C543.003 693.598 546.142 696.883 549.062 701.555L579.722 746.669H571.838L602.498 701.336C605.564 696.664 608.703 693.379 611.915 691.481C615.127 689.583 618.923 688.634 623.303 688.634C628.851 688.634 633.158 690.021 636.224 692.795C639.29 695.569 640.896 699.073 641.042 703.307C641.334 707.541 640.02 711.848 637.1 716.228L587.168 788.279L595.271 766.16V826.166C595.271 840.036 588.555 846.971 575.123 846.971ZM728.755 847.409C711.673 847.409 697 844.124 684.736 837.554C672.472 830.984 663.055 821.713 656.485 809.741C650.061 797.769 646.849 783.753 646.849 767.693C646.849 755.721 648.674 744.844 652.324 735.062C656.12 725.28 661.522 716.885 668.53 709.877C675.684 702.869 684.298 697.54 694.372 693.89C704.592 690.094 716.053 688.196 728.755 688.196C735.471 688.196 742.406 688.999 749.56 690.605C756.86 692.065 763.284 694.328 768.832 697.394C772.92 699.584 775.767 702.358 777.373 705.716C778.979 709.074 779.49 712.505 778.906 716.009C778.468 719.513 777.227 722.652 775.183 725.426C773.139 728.2 770.511 730.098 767.299 731.12C764.087 731.996 760.583 731.485 756.787 729.587C752.407 727.543 748.027 726.01 743.647 724.988C739.413 723.82 734.96 723.236 730.288 723.236C721.236 723.236 713.644 724.988 707.512 728.492C701.526 731.85 697 736.814 693.934 743.384C690.868 749.954 689.335 758.057 689.335 767.693C689.335 777.329 690.868 785.505 693.934 792.221C697 798.791 701.526 803.828 707.512 807.332C713.644 810.69 721.236 812.369 730.288 812.369C734.084 812.369 738.172 811.931 742.552 811.055C746.932 810.033 751.239 808.5 755.473 806.456C759.853 804.558 763.722 804.047 767.08 804.923C770.584 805.799 773.358 807.551 775.402 810.179C777.592 812.807 778.979 815.873 779.563 819.377C780.147 822.735 779.636 826.093 778.03 829.451C776.57 832.809 773.942 835.51 770.146 837.554C765.036 840.62 758.685 843.029 751.093 844.781C743.647 846.533 736.201 847.409 728.755 847.409ZM821.935 845C815.511 845 810.474 843.248 806.824 839.744C803.32 836.094 801.568 831.057 801.568 824.633V710.753C801.568 704.183 803.32 699.146 806.824 695.642C810.328 692.138 815.292 690.386 821.716 690.386C828.286 690.386 833.25 692.138 836.608 695.642C840.112 699.146 841.864 704.183 841.864 710.753V811.493H895.3C900.848 811.493 905.082 812.953 908.002 815.873C911.068 818.647 912.601 822.735 912.601 828.137C912.601 833.539 911.068 837.7 908.002 840.62C905.082 843.54 900.848 845 895.3 845H821.935ZM950.698 845C943.836 845 938.58 843.248 934.93 839.744C931.426 836.094 929.674 830.911 929.674 824.195V711.41C929.674 704.694 931.426 699.584 934.93 696.08C938.58 692.43 943.836 690.605 950.698 690.605H1024.94C1030.2 690.605 1034.14 691.919 1036.77 694.547C1039.39 697.175 1040.71 700.971 1040.71 705.935C1040.71 711.045 1039.39 714.987 1036.77 717.761C1034.14 720.389 1030.2 721.703 1024.94 721.703H968.218V751.049H1020.12C1025.23 751.049 1029.1 752.363 1031.73 754.991C1034.5 757.619 1035.89 761.488 1035.89 766.598C1035.89 771.708 1034.5 775.577 1031.73 778.205C1029.1 780.833 1025.23 782.147 1020.12 782.147H968.218V813.902H1024.94C1030.2 813.902 1034.14 815.289 1036.77 818.063C1039.39 820.691 1040.71 824.487 1040.71 829.451C1040.71 834.561 1039.39 838.43 1036.77 841.058C1034.14 843.686 1030.2 845 1024.94 845H950.698Z" fill="url(#paint6_linear_1_57)"/>
<path d="M369.711 962.026C366.671 962.026 364.315 961.19 362.643 959.518C361.047 957.846 360.249 955.49 360.249 952.45V889.18C360.249 886.064 361.123 883.708 362.871 882.112C364.619 880.44 367.089 879.604 370.281 879.604C372.941 879.604 375.031 880.136 376.551 881.2C378.147 882.188 379.591 883.86 380.883 886.216L405.393 930.22H401.403L425.799 886.216C427.167 883.86 428.611 882.188 430.131 881.2C431.727 880.136 433.855 879.604 436.515 879.604C439.555 879.604 441.873 880.44 443.469 882.112C445.141 883.708 445.977 886.064 445.977 889.18V952.45C445.977 955.49 445.179 957.846 443.583 959.518C441.987 961.19 439.631 962.026 436.515 962.026C433.475 962.026 431.119 961.19 429.447 959.518C427.851 957.846 427.053 955.49 427.053 952.45V913.234H429.447L411.093 945.154C410.029 946.826 408.889 948.08 407.673 948.916C406.533 949.752 404.975 950.17 402.999 950.17C401.099 950.17 399.541 949.752 398.325 948.916C397.109 948.08 396.007 946.826 395.019 945.154L376.551 913.12H379.173V952.45C379.173 955.49 378.375 957.846 376.779 959.518C375.183 961.19 372.827 962.026 369.711 962.026ZM464.535 962.026C462.179 962.026 460.203 961.494 458.607 960.43C457.011 959.29 456.023 957.77 455.643 955.87C455.263 953.894 455.605 951.69 456.669 949.258L485.055 888.154C486.423 885.19 488.095 883.024 490.071 881.656C492.123 880.288 494.441 879.604 497.025 879.604C499.609 879.604 501.851 880.288 503.751 881.656C505.727 883.024 507.437 885.19 508.881 888.154L537.267 949.258C538.483 951.69 538.901 953.894 538.521 955.87C538.217 957.846 537.267 959.366 535.671 960.43C534.151 961.494 532.251 962.026 529.971 962.026C526.931 962.026 524.575 961.342 522.903 959.974C521.307 958.606 519.863 956.402 518.571 953.362L512.415 938.884L520.395 944.698H473.427L481.521 938.884L475.365 953.362C473.997 956.402 472.591 958.606 471.147 959.974C469.703 961.342 467.499 962.026 464.535 962.026ZM496.797 902.518L483.573 934.096L480.381 928.624H513.555L510.363 934.096L497.025 902.518H496.797ZM557.524 962.026C554.332 962.026 551.9 961.19 550.228 959.518C548.556 957.846 547.72 955.376 547.72 952.108V889.978C547.72 886.634 548.556 884.088 550.228 882.34C551.9 880.516 554.104 879.604 556.84 879.604C559.272 879.604 561.172 880.06 562.54 880.972C563.908 881.884 565.428 883.404 567.1 885.532L603.238 930.676H600.046V889.408C600.046 886.216 600.844 883.784 602.44 882.112C604.112 880.44 606.544 879.604 609.736 879.604C612.928 879.604 615.322 880.44 616.918 882.112C618.59 883.784 619.426 886.216 619.426 889.408V952.564C619.426 955.452 618.666 957.77 617.146 959.518C615.626 961.19 613.574 962.026 610.99 962.026C608.406 962.026 606.354 961.57 604.834 960.658C603.39 959.67 601.832 958.15 600.16 956.098L564.022 910.84H567.214V952.108C567.214 955.376 566.378 957.846 564.706 959.518C563.11 961.19 560.716 962.026 557.524 962.026ZM644.598 962.026C641.254 962.026 638.67 961.114 636.846 959.29C635.022 957.39 634.11 954.73 634.11 951.31V890.32C634.11 886.824 635.022 884.164 636.846 882.34C638.67 880.516 641.254 879.604 644.598 879.604C648.018 879.604 650.602 880.516 652.35 882.34C654.174 884.164 655.086 886.824 655.086 890.32V951.31C655.086 954.73 654.212 957.39 652.464 959.29C650.716 961.114 648.094 962.026 644.598 962.026ZM673.386 962.026C671.03 962.026 669.054 961.494 667.458 960.43C665.862 959.29 664.874 957.77 664.494 955.87C664.114 953.894 664.456 951.69 665.52 949.258L693.906 888.154C695.274 885.19 696.946 883.024 698.922 881.656C700.974 880.288 703.292 879.604 705.876 879.604C708.46 879.604 710.702 880.288 712.602 881.656C714.578 883.024 716.288 885.19 717.732 888.154L746.118 949.258C747.334 951.69 747.752 953.894 747.372 955.87C747.068 957.846 746.118 959.366 744.522 960.43C743.002 961.494 741.102 962.026 738.822 962.026C735.782 962.026 733.426 961.342 731.754 959.974C730.158 958.606 728.714 956.402 727.422 953.362L721.266 938.884L729.246 944.698H682.278L690.372 938.884L684.216 953.362C682.848 956.402 681.442 958.606 679.998 959.974C678.554 961.342 676.35 962.026 673.386 962.026ZM705.648 902.518L692.424 934.096L689.232 928.624H722.406L719.214 934.096L705.876 902.518H705.648Z" fill="#87FF5E"/>
<rect x="164.828" y="916.165" width="144.026" height="28.8053" rx="14.4026" fill="#87FF5E"/>
<rect x="800.944" y="916.165" width="144.026" height="28.8053" rx="14.4026" fill="#87FF5E"/>
<path d="M156.048 419.635V401.007C152.658 399.843 149.874 397.782 147.696 394.825C145.519 391.868 144.428 388.496 144.425 384.708V343.961C144.425 342.312 144.982 340.93 146.098 339.816C147.214 338.703 148.593 338.144 150.236 338.14H173.482C175.129 338.14 176.51 338.699 177.626 339.816C178.742 340.934 179.298 342.315 179.294 343.961V384.708C179.294 388.492 178.205 391.864 176.028 394.825C173.851 397.786 171.065 399.847 167.671 401.007V419.635H173.482C175.129 419.635 176.51 420.193 177.626 421.311C178.742 422.429 179.298 423.81 179.294 425.456C179.294 427.105 178.736 428.489 177.62 429.606C176.504 430.724 175.125 431.281 173.482 431.277H150.236C148.589 431.277 147.21 430.718 146.098 429.6C144.986 428.483 144.428 427.101 144.425 425.456C144.425 423.806 144.982 422.425 146.098 421.311C147.214 420.197 148.593 419.639 150.236 419.635H156.048ZM156.048 367.245H167.671V349.782H156.048V367.245ZM202.54 431.277C199.344 431.277 196.609 430.138 194.334 427.86C192.06 425.582 190.921 422.84 190.917 419.635V364.044C190.917 361.521 191.644 359.266 193.097 357.279C194.549 355.293 196.438 353.861 198.763 352.984L204.284 350.946C205.64 350.461 206.657 349.759 207.335 348.839C208.013 347.919 208.352 346.778 208.352 345.416V320.677C208.352 319.027 208.91 317.646 210.026 316.532C211.142 315.418 212.521 314.859 214.164 314.856H231.598C233.245 314.856 234.626 315.414 235.742 316.532C236.858 317.65 237.414 319.031 237.41 320.677V345.416C237.41 346.774 237.749 347.915 238.427 348.839C239.105 349.763 240.122 350.465 241.478 350.946L246.999 352.984C249.324 353.857 251.212 355.289 252.665 357.279C254.118 359.27 254.845 361.525 254.845 364.044V419.635C254.845 422.836 253.708 425.578 251.433 427.86C249.159 430.142 246.422 431.281 243.221 431.277H202.54ZM219.975 332.319H225.787V326.498H219.975V332.319ZM202.54 373.066H243.221V364.044L237.7 362.006C234.02 360.648 231.114 358.514 228.983 355.603C226.852 352.692 225.787 349.394 225.787 345.707V343.961H219.975V345.707C219.975 349.394 218.91 352.692 216.779 355.603C214.648 358.514 211.742 360.648 208.061 362.006L202.54 364.044V373.066ZM202.54 419.635H243.221V407.993H202.54V419.635Z" fill="url(#paint7_linear_1_57)"/>
<path d="M223.724 231.151C221.068 229.207 219.486 226.599 218.98 223.325C218.473 220.052 219.192 217.085 221.135 214.423L267.086 151.645C265.718 150.643 264.911 149.341 264.665 147.737C264.42 146.134 264.795 144.648 265.791 143.281C266.793 141.913 268.095 141.106 269.699 140.86C271.302 140.615 272.788 140.99 274.155 141.986L293.472 156.125C294.473 154.757 295.776 153.95 297.379 153.705C298.983 153.459 300.468 153.835 301.836 154.831L321.152 168.969C322.52 169.971 323.329 171.275 323.577 172.88C323.826 174.486 323.449 175.971 322.447 177.333L341.763 191.472C343.131 192.474 343.94 193.777 344.188 195.383C344.437 196.989 344.06 198.473 343.058 199.836C342.056 201.204 340.752 202.013 339.147 202.261C337.541 202.51 336.056 202.133 334.694 201.13L288.743 263.909C286.799 266.565 284.189 268.148 280.914 268.658C277.638 269.168 274.672 268.448 272.015 266.498L223.724 231.151ZM252.35 222.439C253.718 223.44 255.205 223.817 256.811 223.568C258.417 223.32 259.718 222.512 260.714 221.144L285.457 187.34C286.458 185.972 286.833 184.487 286.583 182.884C286.332 181.281 285.525 179.979 284.162 178.976C282.794 177.975 281.308 177.6 279.706 177.85C278.103 178.101 276.801 178.908 275.798 180.271L251.055 214.075C250.054 215.443 249.678 216.93 249.926 218.536C250.175 220.142 250.983 221.443 252.35 222.439ZM271.667 236.577C273.035 237.579 274.522 237.955 276.128 237.707C277.734 237.458 279.034 236.65 280.03 235.283L304.773 201.479C305.775 200.111 306.15 198.625 305.899 197.023C305.648 195.42 304.841 194.118 303.479 193.115C302.11 192.114 300.625 191.738 299.022 191.989C297.42 192.24 296.117 193.047 295.115 194.41L270.372 228.214C269.371 229.582 268.994 231.069 269.243 232.675C269.491 234.281 270.299 235.581 271.667 236.577Z" fill="url(#paint8_linear_1_57)"/>
<defs>
<linearGradient id="paint0_linear_1_57" x1="554.899" y1="305.254" x2="554.899" y2="451.681" gradientUnits="userSpaceOnUse">
<stop stop-color="#87FF5E"/>
<stop offset="1" stop-color="#42FFBB"/>
</linearGradient>
<linearGradient id="paint1_linear_1_57" x1="215.936" y1="487.248" x2="252.403" y2="633.27" gradientUnits="userSpaceOnUse">
<stop stop-color="#87FF5E"/>
<stop offset="1" stop-color="#42FFBB"/>
</linearGradient>
<linearGradient id="paint2_linear_1_57" x1="907.997" y1="482.888" x2="867.734" y2="631.892" gradientUnits="userSpaceOnUse">
<stop stop-color="#87FF5E"/>
<stop offset="1" stop-color="#42FFBB"/>
</linearGradient>
<linearGradient id="paint3_linear_1_57" x1="889.13" y1="295.014" x2="914.898" y2="399.915" gradientUnits="userSpaceOnUse">
<stop stop-color="#87FF5E"/>
<stop offset="1" stop-color="#42FFBB"/>
</linearGradient>
<linearGradient id="paint4_linear_1_57" x1="799.744" y1="133.623" x2="799.744" y2="229.64" gradientUnits="userSpaceOnUse">
<stop stop-color="#87FF5E"/>
<stop offset="1" stop-color="#42FFBB"/>
</linearGradient>
<linearGradient id="paint5_linear_1_57" x1="554.299" y1="109.618" x2="554.299" y2="610.109" gradientUnits="userSpaceOnUse">
<stop stop-color="white"/>
<stop offset="0.0001" stop-color="#87FF5E"/>
<stop offset="1" stop-color="#42FFBB"/>
</linearGradient>
<linearGradient id="paint6_linear_1_57" x1="558.5" y1="623" x2="558.5" y2="920" gradientUnits="userSpaceOnUse">
<stop stop-color="white"/>
<stop offset="1" stop-color="#87FF5E"/>
</linearGradient>
<linearGradient id="paint7_linear_1_57" x1="199.635" y1="314.856" x2="199.635" y2="431.277" gradientUnits="userSpaceOnUse">
<stop stop-color="#87FF5E"/>
<stop offset="1" stop-color="#42FFBB"/>
</linearGradient>
<linearGradient id="paint8_linear_1_57" x1="311.494" y1="161.9" x2="247.869" y2="248.825" gradientUnits="userSpaceOnUse">
<stop stop-color="#87FF5E"/>
<stop offset="1" stop-color="#42FFBB"/>
</linearGradient>
</defs>
</svg>
